#!OML:ASF F:\VICON\USERDATA\INSTALL\rory3\rory3.ASF
:FULLY-SPECIFIED
:DEGREES
454
root -10.255 6.25099 10.0528 -10.2794 -49.8026 -2.15
lowerback 41.7184 0.259029 -5.37402
upperback 8.9049 -2.79165 -0.930765
thorax -9.76504 -1.5214 3.00871
lowerneck -17.7077 1.98144 -8.46662
upperneck 35.7043 4.02659 3.3841
head 15.2023 0.791435 3.56515
rclavicle 3.02153e-014 -2.22639e-014
rhumerus -29.5528 -1.98938 -86.5461
rradius 35.1121
rwrist 3.65559
rhand -13.1878 11.7411
rfingers 7.12502
rthumb 12.9121 -17.8394
lclavicle 3.02153e-014 -2.22639e-014
lhumerus 13.5271 22.2501 105.4
lradius 11.0968
lwrist -37.1811
lhand -37.4411 58.6462
lfingers 7.12502
lthumb -10.5002 88.3639
rfemur -134.721 -75.0837 48.012
rtibia 166.931
rfoot -17.7755 28.7192
rtoes -14.4301
lfemur -286.004 65.2076 -192.107
ltibia 161.547
lfoot -44.4552 -56.3903
ltoes -13.8131
455
root -10.2646 6.21557 10.0553 -10.5319 -49.7467 -2.10386
lowerback 41.9245 0.283801 -5.5044
upperback 8.98408 -2.83197 -0.895121
thorax -9.72656 -1.54648 3.13134
lowerneck -17.8873 2.04297 -8.34774
upperneck 35.6928 4.17037 3.19587
head 15.2381 0.841393 3.49403
rclavicle 2.82274e-014 -9.54166e-015
rhumerus -29.6018 -2.03582 -86.703
rradius 35.4676
rwrist 3.856
rhand -13.7485 10.6594
rfingers 7.12502
rthumb 12.3716 -18.9545
lclavicle 2.82274e-014 -9.54166e-015
lhumerus 13.8977 23.4084 105.788
lradius 10.9127
lwrist -38.9879
lhand -37.3574 58.8289
lfingers 7.12502
lthumb -10.4194 88.5507
rfemur -136.525 -75.9367 48.6109
rtibia 167.207
rfoot -18.4623 30.1197
rtoes -10.3415
lfemur -286.923 64.8094 -192.402
ltibia 161.76
lfoot -44.7432 -56.8372
ltoes -13.7639
456
root -10.272 6.19056 10.0542 -10.648 -49.7328 -2.25184
lowerback 42.2186 0.287576 -5.37817
upperback 9.00157 -2.80658 -0.94128
thorax -9.80614 -1.53575 3.01059
lowerneck -17.8697 2.07747 -8.10628
upperneck 35.6598 4.15951 3.131
head 15.2263 0.862482 3.4214
rclavicle -1.39149e-014 5.1684e-014
rhumerus -29.6424 -2.86681 -86.7708
rradius 35.5335
rwrist 4.36508
rhand -13.5494 11.0242
rfingers 7.12502
rthumb 12.5635 -18.578
lclavicle -1.39149e-014 5.1684e-014
lhumerus 13.9579 23.8899 105.85
lradius 10.8167
lwrist -40.2951
lhand -36.7888 59.1348
lfingers 7.12502
lthumb -9.87088 88.8834
rfemur -136.804 -75.8486 48.5937
rtibia 167.349
rfoot -18.2813 30.3015
rtoes -10.7786
lfemur -288.054 64.5963 -192.726
ltibia 161.902
lfoot -45.3266 -57.5286
ltoes -14.5609
457
root -10.2789 6.17268 10.0499 -10.6935 -49.7304 -2.40017
lowerback 42.4032 0.27864 -5.34584
upperback 9.04161 -2.81944 -0.925532
thorax -9.81614 -1.54573 3.01814
lowerneck -17.8885 2.13496 -8.10776
upperneck 35.6053 4.23974 3.15467
head 15.1966 0.902654 3.44336
rclavicle 2.98177e-014 2.22639e-014
rhumerus -29.5914 -3.47627 -86.8067
rradius 35.5162
rwrist 4.77941
rhand -13.4093 11.051
rfingers 7.12502
rthumb 12.6987 -18.5429
lclavicle 2.98177e-014 2.22639e-014
lhumerus 14.0223 24.1684 105.849
lradius 10.7638
lwrist -40.7079
lhand -38.1886 59.1448
lfingers 7.12502
lthumb -11.2212 88.8247
rfemur -136.66 -75.7097 48.6509
rtibia 167.429
rfoot -18.4464 30.0192
rtoes -15.0186
lfemur -289.272 64.5481 -193.069
ltibia 161.952
lfoot -43.8783 -59.3423
ltoes -12.2345
458
root -10.2841 6.16418 10.0436 -10.6837 -49.6866 -2.54186
lowerback 42.5806 0.206794 -5.39645
upperback 9.06232 -2.93944 -0.882875
thorax -9.83248 -1.60305 3.14291
lowerneck -17.9856 2.26997 -8.14028
upperneck 35.5764 4.48245 3.10093
head 15.1876 0.993269 3.46811
rclavicle -2.38542e-014 2.94201e-014
rhumerus -29.5762 -3.31266 -86.9826
rradius 35.6516
rwrist 4.64145
rhand -13.2968 10.9753
rfingers 7.12502
rthumb 12.8071 -18.6118
lclavicle -2.38542e-014 2.94201e-014
lhumerus 13.9238 24.0616 105.591
lradius 10.8503
lwrist -40.8818
lhand -38.066 58.7192
lfingers 7.12502
lthumb -11.103 88.4055
rfemur -136.301 -75.6426 48.6099
rtibia 167.446
rfoot -18.6172 29.7586
rtoes -16.5604
lfemur -290.025 64.6659 -193.321
ltibia 161.931
lfoot -42.0543 -60.7778
ltoes -9.28094
459
root -10.2866 6.16242 10.0355 -10.5233 -49.5792 -2.70167
lowerback 42.689 0.130061 -5.37059
upperback 9.05822 -3.03008 -0.884344
thorax -9.86446 -1.64359 3.16846
lowerneck -18.1226 2.35585 -7.97653
upperneck 35.67 4.59777 3.01755
head 15.2629 1.04512 3.4318
rclavicle -3.81667e-014 6.91771e-014
rhumerus -29.5678 -3.03915 -87.2579
rradius 35.7925
rwrist 4.2868
rhand -12.9762 11.395
rfingers 7.12502
rthumb 13.1161 -18.1725
lclavicle -3.81667e-014 6.91771e-014
lhumerus 13.8174 23.6627 105.282
lradius 10.9007
lwrist -40.7803
lhand -37.8609 58.8243
lfingers 7.12502
lthumb -10.9051 88.5211
rfemur -136.29 -75.2755 48.8708
rtibia 167.446
rfoot -18.4475 29.3751
rtoes -16.4365
lfemur -289.683 65.0666 -192.94
ltibia 161.935
lfoot -41.8972 -60.4986
ltoes -9.11616
460
root -10.2894 6.16764 10.0348 -10.4381 -49.5984 -2.69016
lowerback 42.6596 0.177072 -5.39327
upperback 9.08251 -2.98481 -0.915941
thorax -9.83151 -1.62424 3.12543
lowerneck -18.1345 2.34769 -7.92751
upperneck 35.6299 4.53223 3.12147
head 15.2471 1.04228 3.45518
rclavicle 8.18993e-014 -2.22639e-014
rhumerus -29.5195 -3.10296 -87.4069
rradius 35.8745
rwrist 4.14716
rhand -12.8549 11.7239
rfingers 7.12502
rthumb 13.2331 -17.836
lclavicle 8.18993e-014 -2.22639e-014
lhumerus 13.6196 22.6423 104.871
lradius 10.9846
lwrist -40.2743
lhand -38.0011 58.9597
lfingers 7.12502
lthumb -11.0403 88.6494
rfemur -135.941 -74.6884 48.6328
rtibia 167.375
rfoot -18.2495 29.0379
rtoes -17.045
lfemur -288.965 64.9466 -192.59
ltibia 161.95
lfoot -43.8898 -58.8459
ltoes -11.2593
461
root -10.2913 6.18476 10.0338 -10.385 -49.6953 -2.68099
lowerback 42.6024 0.207373 -5.47022
upperback 9.17328 -2.98297 -0.936033
thorax -9.70833 -1.6318 3.13839
lowerneck -18.1845 2.39051 -7.87756
upperneck 35.5132 4.59548 3.09403
head 15.2001 1.07862 3.44254
rclavicle 2.70347e-014 3.49861e-014
rhumerus -29.364 -3.06053 -87.5686
rradius 35.9641
rwrist 4.12996
rhand -13.0503 11.3835
rfingers 7.12502
rthumb 13.0447 -18.1886
lclavicle 2.70347e-014 3.49861e-014
lhumerus 13.4626 21.601 104.412
lradius 11.1337
lwrist -39.0836
lhand -38.5736 59.0935
lfingers 7.12502
lthumb -11.5925 88.7528
rfemur -134.798 -74.0783 47.7707
rtibia 167.212
rfoot -17.9895 28.773
rtoes -17.359
lfemur -288.519 64.6258 -192.521
ltibia 161.914
lfoot -45.5334 -57.5372
ltoes -12.9439
462
root -10.2918 6.20827 10.0291 -10.0522 -49.7818 -2.8798
lowerback 42.4368 0.134494 -5.4917
upperback 9.27433 -3.0671 -0.905006
thorax -9.53618 -1.68177 3.21218
lowerneck -18.4714 2.48223 -7.90213
upperneck 35.5439 4.81377 2.9881
head 15.2698 1.1482 3.44898
rclavicle -7.4743e-014 5.24792e-014
rhumerus -29.1441 -2.87892 -87.7124
rradius 36.0529
rwrist 4.27247
rhand -13.1452 11.2354
rfingers 7.12502
rthumb 12.9533 -18.3425
lclavicle -7.4743e-014 5.24792e-014
lhumerus 13.5121 21.4028 104.167
lradius 11.2813
lwrist -38.5468
lhand -38.7679 59.1386
lfingers 7.12502
lthumb -11.7798 88.7874
rfemur -133.503 -73.32 47.1483
rtibia 167.003
rfoot -17.5473 28.3316
rtoes -17.1172
lfemur -287.845 64.9391 -192.024
ltibia 161.794
lfoot -45.2775 -57.2915
ltoes -12.8255
463
root -10.2915 6.23607 10.0097 -9.6896 -49.7963 -3.10209
lowerback 42.5041 0.166244 -5.61289
upperback 9.24832 -3.06794 -0.777249
thorax -9.5723 -1.68167 3.41374
lowerneck -18.7326 2.52961 -7.93247
upperneck 35.6117 4.96147 2.8969
head 15.3565 1.18742 3.45191
rclavicle 4.45278e-014 -8.0309e-014
rhumerus -28.9251 -2.8977 -87.7366
rradius 35.9547
rwrist 4.64152
rhand -13.1769 11.46
rfingers 7.12502
rthumb 12.9226 -18.1199
lclavicle 4.45278e-014 -8.0309e-014
lhumerus 13.5556 21.1989 103.992
lradius 11.3111
lwrist -38.0422
lhand -38.1235 59.1646
lfingers 7.12502
lthumb -11.1584 88.8479
rfemur -131.714 -72.5591 46.7305
rtibia 166.781
rfoot -17.3688 27.2127
rtoes -14.6714
lfemur -287.212 65.9063 -191.638
ltibia 161.531
lfoot -44.1841 -57.2976
ltoes -12.0391
464
root -10.2881 6.27407 9.99765 -9.38908 -49.6893 -3.22723
lowerback 42.6036 0.143483 -5.55491
upperback 9.18182 -3.06846 -0.729018
thorax -9.67812 -1.67532 3.44022
lowerneck -18.9131 2.51425 -7.98161
upperneck 35.7494 4.95019 2.97533
head 15.4612 1.17869 3.50339
rclavicle -3.33958e-014 1.03368e-014
rhumerus -28.7352 -3.38173 -87.6069
rradius 35.6818
rwrist 4.77234
rhand -12.5376 12.2358
rfingers 7.12502
rthumb 13.5389 -17.304
lclavicle -3.33958e-014 1.03368e-014
lhumerus 13.5517 21.0088 103.899
lradius 11.3173
lwrist -37.2789
lhand -39.2824 59.3616
lfingers 7.12502
lthumb -12.2759 88.9813
rfemur -130.545 -72.3461 46.5536
rtibia 166.487
rfoot -17.3049 26.5586
rtoes -10.8938
lfemur -286.106 66.4626 -191.378
ltibia 161.325
lfoot -44.5159 -55.9704
ltoes -12.5741
465
root -10.2799 6.32196 9.99207 -9.11238 -49.6253 -3.26629
lowerback 42.6401 0.0827223 -5.49301
upperback 9.14062 -3.11841 -0.746805
thorax -9.73637 -1.69321 3.41256
lowerneck -19.0104 2.52516 -7.98132
upperneck 35.7372 4.96426 3.01502
head 15.4748 1.19115 3.52544
rclavicle 6.36111e-015 2.3059e-014
rhumerus -28.6335 -3.22046 -87.6976
rradius 35.698
rwrist 4.64725
rhand -12.8927 12.3105
rfingers 7.12502
rthumb 13.1967 -17.2519
lclavicle 6.36111e-015 2.3059e-014
lhumerus 13.6438 21.2232 103.934
lradius 11.322
lwrist -36.9664
lhand -40.1961 59.7723
lfingers 7.12502
lthumb -13.1569 89.3372
rfemur -128.965 -72.2667 45.7026
rtibia 166.105
rfoot -17.0816 26.3795
rtoes -9.19291
lfemur -284.757 66.752 -191.211
ltibia 161.115
lfoot -45.5786 -53.7775
ltoes -13.8852
466
root -10.2674 6.37464 9.99043 -8.96968 -49.6551 -3.10898
lowerback 42.6167 0.0694508 -5.4969
upperback 9.11759 -3.14623 -0.845601
thorax -9.7582 -1.70123 3.32018
lowerneck -18.8677 2.54479 -7.84996
upperneck 35.4188 4.95329 2.95459
head 15.2944 1.21651 3.45794
rclavicle -3.89618e-014 1.35174e-014
rhumerus -28.5403 -2.89863 -87.9439
rradius 35.9196
rwrist 4.7124
rhand -13.8016 12.3174
rfingers 7.12502
rthumb 12.3204 -17.2996
lclavicle -3.89618e-014 1.35174e-014
lhumerus 13.7412 21.4066 103.924
lradius 11.4305
lwrist -36.9577
lhand -37.8825 58.6332
lfingers 7.12502
lthumb -10.926 88.3289
rfemur -127.093 -72.0975 44.3143
rtibia 165.649
rfoot -17.1584 26.3718
rtoes -10.1652
lfemur -283.53 66.8545 -191.373
ltibia 160.823
lfoot -45.6008 -52.6463
ltoes -13.5569
